<?xml version="1.0" encoding="UTF-8"?>
<!-- Generator: Adobe Illustrator 25.0.1, SVG Export Plug-In . SVG Version: 6.00 Build 0)  -->
<svg xmlns="http://www.w3.org/2000/svg" xmlns:xlink="http://www.w3.org/1999/xlink" version="1.1" id="Layer_1" x="0px" y="0px" viewBox="0 0 1920 1080" style="enable-background:new 0 0 1920 1080;" xml:space="preserve">
<style type="text/css">
	.st0{fill:#4C9C2E;}
	.st1{fill:#FFFFFF;}
</style>
<g>
	<g>
		<path class="st0" d="M1170.1,271.2c-52.6-70.4-127.5-115.9-211.5-115.9c-83.9,0-158.8,45.5-211.5,115.9    c-52.8,70.5-84.7,166.4-84.7,271.9c0,105.5,31.9,201,84.8,271c52.7,69.9,127.6,114.9,211.4,114.9h0.1c83.8,0,158.7-45,211.4-114.9    c52.9-70,84.8-165.5,84.8-271C1254.8,437.6,1222.9,341.7,1170.1,271.2 M1158.3,805.3c-50.6,67.1-121.3,109.1-199.7,109.1h0    c-78.4,0-149.3-41.9-200.2-109.1c-51-67.2-82.4-159.7-82.4-262.2s31.4-195.5,82.3-263.1c50.9-67.6,121.8-110,200.2-110    c78.4,0,149.1,42.4,199.7,110c50.7,67.6,81.8,160.6,81.8,263.1C1240.2,645.7,1209.1,738.2,1158.3,805.3"></path>
		<path class="st0" d="M1226.4,543.1c0-99.8-30.4-189.9-79.1-254.9c-48.8-65-115.5-104.5-188.7-104.5s-140.2,39.6-189.3,104.5    c-49,64.9-79.6,155.1-79.6,254.9c0,99.7,30.6,189.5,79.6,253.9c49,64.5,115.9,103.6,189.3,103.6c73.3,0,140-39.1,188.7-103.6    C1196.1,732.6,1226.4,642.9,1226.4,543.1"></path>
		<path class="st1" d="M1158.4,280c-50.6-67.6-121.3-110-199.7-110c-78.4,0-149.3,42.4-200.2,110C707.4,347.6,676,440.6,676,543.1    c0,102.5,31.4,195.1,82.3,262.2c50.9,67.1,121.8,109.1,200.2,109.1h0c78.4,0,149-41.9,199.7-109.1    c50.7-67.2,81.8-159.7,81.8-262.2C1240.2,440.6,1209.1,347.6,1158.4,280 M958.6,900.7c-73.3,0-140.3-39.1-189.3-103.6    c-49-64.5-79.6-154.2-79.6-253.9c0-99.7,30.6-189.9,79.6-254.8c49-65,116-104.6,189.3-104.6s140,39.6,188.7,104.5    c48.7,64.9,79.1,155.1,79.1,254.9c0,99.7-30.4,189.5-79.1,253.9C1098.6,861.5,1031.9,900.7,958.6,900.7"></path>
		<path class="st1" d="M872.8,718.5c-5.5-2.4-10-3.7-13.5-3.7c-4.7,0-7.6,1.9-7.6,4.8c0,2.2,1.3,3.6,5,5.5c7.9,4.3,13.2,7.6,15.6,10    c2.2,2.2,3.5,5.7,3.5,9.3c0,9.3-6.8,14.7-18.3,14.7c-1.6,0-3.2-0.1-4.7-0.3c-3.7-0.5-5.4-1.1-10.9-3.6c-0.7-0.3-1.9-0.9-3.4-1.6    l4.2-9.1c3.8,2,5.4,2.8,7.4,3.6c2.6,0.9,5.4,1.5,7.5,1.5c4.6,0,7.6-2,7.6-5.2c0-2.2-1.2-3.7-4.6-5.6l-8-4.6    c-9.2-5.3-12.1-8.8-12.1-14.4c0-2.6,0.8-5.3,2-7.2c0.9-1.3,2.2-2.7,3.9-3.9c3.8-2.6,7-3.5,13.1-3.5c3.5,0,6.5,0.4,9.8,1.3    c2.5,0.8,3.9,1.3,7.4,3L872.8,718.5z"></path>
		<rect x="885.1" y="706.1" class="st1" width="9.9" height="52"></rect>
		<polygon class="st1" points="908.2,758.1 908.2,706.1 918.2,706.1 918.2,749.7 939.4,749.7 939.4,758.1   "></polygon>
		<path class="st1" d="M960.2,759.6h-6.9L934,706.1h10.9l11.9,35.2l0.2,0.7l0.1,0.9l0.2,0.9l-0.1-0.5c0-0.7,0.1-0.9,0.2-1.3l0.3-0.6    l11.3-35.2h10.4L960.2,759.6z"></path>
		<polygon class="st1" points="986.1,758.1 986.1,706.1 1017.8,706.1 1017.8,714.5 996,714.5 996,727.4 1013.8,727.4 1013.8,735.8     996,735.8 996,749.7 1018.8,749.7 1018.8,758.1   "></polygon>
		<path class="st1" d="M1054.6,758.1l-11.9-20.8h-5v20.8h-9.9v-52h17.4c7.5,0,11,0.9,14.1,3.9c2.8,2.6,4.3,6.4,4.3,11.3    c0,4-0.9,7.2-2.8,9.8c-2,2.5-3.8,3.6-8.1,4.8l12.9,22.3L1054.6,758.1L1054.6,758.1z M1044.2,714.5h-6.5v14.3h6.5    c6.3,0,9.1-2.2,9.1-7.4C1053.2,716.5,1050.6,714.5,1044.2,714.5"></path>
		<polygon class="st1" points="836.1,558.7 836.1,630.3 819.8,630.3 819.8,558.7 794.2,558.7 794.2,544.9 861.8,544.9 861.8,558.7       "></polygon>
		<path class="st1" d="M880.1,632c-17.2,0-30.3-13.7-30.3-31.8c0-18,13.1-31.7,30.3-31.7c17.2,0,30.3,13.7,30.3,31.7    C910.4,618.2,897.3,632,880.1,632 M880.1,580.7c-7.8,0-14.2,8.8-14.2,19.4c0,10.7,6.5,19.5,14.2,19.5c7.8,0,14.2-8.8,14.2-19.5    C894.3,589.5,887.9,580.7,880.1,580.7"></path>
		<path class="st1" d="M956,630.3v-10.1c-7.2,8-13.2,11.1-20.8,11.1c-10.9,0-16.3-5.6-16.3-17v-44.3h15.5v38.7    c0,7.4,1.3,10.2,4.9,10.2c3.4,0,7.9-3.4,14.6-10.5l2.1-2.2v-36.2h15.5v60.2L956,630.3L956,630.3z"></path>
		<path class="st1" d="M1017.1,588.5c-1.7-1.3-3-1.8-4.7-1.8c-2.5,0-5.2,1.7-7.5,4.5c-2.8,3.5-4.2,7-4.2,11.5v27.6h-15.4v-60.2h13.3    l0.6,13.2c5.8-10.2,9.6-14.1,14.2-14.1c3.2,0,5.9,1.4,8.4,4.3L1017.1,588.5z"></path>
		<rect x="1026.2" y="570.1" class="st1" width="15.4" height="60.2"></rect>
		<path class="st1" d="M1094.9,586.8c-1.6-1-3-1.9-4.1-2.6c-4.3-2.6-9.5-4.1-13.8-4.1c-5.9,0-9.8,2.3-9.8,5.7c0,2.7,2.1,4.4,7.5,6.3    c6.7,2.3,15.4,6.3,18.1,8.3c3.8,2.7,6.2,8,6.2,13.3c0,11-9.6,18.2-24.1,18.2c-3,0-6.2-0.4-9.8-1.2c-5.6-1.2-8.3-2.2-14.9-5.6    l4.9-12.6c6.1,3.8,8.5,4.9,12.9,6.3c2.3,0.8,4.5,1.2,6.7,1.2c5.9,0,9.5-1.9,9.5-5.2c0-2.7-1.9-4.8-6.1-6.3l-10.4-4    c-10.6-4.1-15.5-9.7-15.5-17.7c0-11.3,9.8-18.9,24.5-18.9c2.9,0,6.2,0.4,10,1.2c5.7,1.2,7.8,1.9,13.2,5L1094.9,586.8z"></path>
		<path class="st1" d="M1184.7,630.3v-38.7c0-7.5-1.3-10.2-4.9-10.2c-2,0-5.1,1.6-8.4,4.4c-2.2,1.8-4.4,4-8.3,8.4v36.1h-15.5v-38.7    c0-7.5-1.3-10.2-5.1-10.2c-3.2,0-7.8,3.2-14.5,10.5l-2.1,2.2v36.2h-15.5v-60.2h15.5v10c7.2-7.9,13.2-11.1,20.8-11.1    c8.9,0,14.4,4.1,15.8,11.8c6.6-7.9,13.5-11.8,21.4-11.8c10.9,0,16.3,5.7,16.3,17.1v44.3L1184.7,630.3L1184.7,630.3z"></path>
		<path class="st1" d="M788.2,521.2c-9.2,2.1-14.5,2.9-21.7,2.9c-28.7,0-48.6-18.3-48.6-45c0-13.1,5-24.5,14.3-33    c8.9-8.1,18.8-11.5,33.8-11.5c6.3,0,12.6,0.7,18.1,2c4.2,1.1,6.8,2,12.8,4.6l-3.9,13.7c-3.1-1.2-5.5-2-7.1-2.5    c-6.1-2.1-12.3-3.1-17.8-3.1c-19.4,0-32.8,11.9-32.8,29.1c0,17.7,14.8,31.2,34,31.2c3.9,0,6.1-0.4,11.3-1.8v-23.8H797v35.3    C793,520,790.1,520.7,788.2,521.2"></path>
		<path class="st1" d="M838.8,480.1c-1.7-1.3-3-1.8-4.7-1.8c-2.5,0-5.2,1.7-7.6,4.6c-2.9,3.5-4.2,7.1-4.2,11.6v27.9h-15.6v-60.8    h13.5l0.6,13.3c5.9-10.3,9.7-14.3,14.4-14.3c3.3,0,6,1.4,8.5,4.3L838.8,480.1z"></path>
		<path class="st1" d="M892,519.8c-6.4,2.9-13,4.3-20,4.3c-18.1,0-29.4-11.9-29.4-30.5c0-19.2,13.1-33.8,30.5-33.8    c15,0,25.5,11.4,25.5,27.9v6.7h-40.3c0.3,5.1,0.7,7.2,2.1,9.7c2.6,4.4,7.9,7.3,13.6,7.3c2.4,0,4.7-0.3,7.2-1.1    c3.7-1,6-2.2,11.6-5.7l5.8,11.9C895.7,518.1,893.5,519.1,892,519.8 M872,471.6c-6.9,0-11.7,4.7-13,13h23.8    C882.5,475.3,879.3,471.6,872,471.6"></path>
		<path class="st1" d="M954.5,519.8c-6.4,2.9-13,4.3-20,4.3c-18.1,0-29.4-11.9-29.4-30.5c0-19.2,13.1-33.8,30.5-33.8    c15,0,25.5,11.4,25.5,27.9v6.7h-40.3c0.3,5.1,0.7,7.2,2.1,9.7c2.6,4.4,7.9,7.3,13.6,7.3c2.4,0,4.7-0.3,7.2-1.1    c3.7-1,6-2.2,11.7-5.7l5.8,11.9C958.2,518.1,956,519.1,954.5,519.8 M934.5,471.6c-6.9,0-11.6,4.7-13,13h23.8    C945,475.3,941.8,471.6,934.5,471.6"></path>
		<path class="st1" d="M1006.9,522.4v-39.1c0-7.6-1.3-10.3-5.1-10.3c-3.3,0-7.8,3.3-14.7,10.6l-2.1,2.2v36.6h-15.7v-60.8H985v10.1    c7.3-8,13.4-11.2,21.1-11.2c11,0,16.5,5.7,16.5,17.3v44.8H1006.9z"></path>
		<path class="st1" d="M1160.5,405.8l-1.1,0.1L1160.5,405.8c0-0.5-0.5-1.7-1.6-1.6c-2.1,0.3-4.1,2.6-10.7,6.3    c-6.4,3.6-16.6,8.6-32.6,13.6c-38.9,12.1-70.1,32.7-70.2,66c0,5.5,0.8,11.3,2.6,17.4v0.1c0.1,1.9-4.7,11.1-9.9,19.1    c-2.6,4.1-5.3,8-7.5,10.8c-1,1.2-2.5,2.8-3.9,5.1c0,0.1-0.1,0.1-0.1,0.2c0,0-0.1,0-0.1,0c0,0,0,0.1,0.1,0.1c0,0.1-0.1,0.2-0.1,0.3    c-0.1,0.2-0.2,0.4-0.4,0.6c0,0,0,0,0,0h0c0,0,0,0,0,0l0,0.1c-0.7,1.5-1.1,3.1-1.1,4.9c0,5.8,4,10.5,8.8,10.5s8.7-4.7,8.7-10.5    c0-0.2,0-0.4-0.1-0.7c5.2-12.6,13.9-33.9,23.8-46.3c15.1-19,26-28.4,47.1-40.3l1-0.6l-0.6-1c-0.1,0-1.2-2.5-3.8-2.7    c-0.3,0-0.6,0-1,0.2c-14.8,5.5-28,16-37.6,24.9c-4.8,4.5-8.7,8.7-11.5,11.7c-1.3,1.4-2.3,2.6-3.1,3.4c-0.6-3.1-0.9-6-0.9-8.9    c-0.2-33.9,41.4-49.1,62-56.2c9.4-3.3,17.7-6.2,23.7-8.3c3-1.1,5.5-1.9,7.2-2.5c0.7-0.2,1.2-0.4,1.7-0.6c0.5,5.7,0.7,11,0.7,16    c0,37.5-12.3,56.2-25,66.8c-12.5,10.6-25.3,12.6-28.4,18.1c-0.1,0.2-0.2,0.4-0.2,0.7c0,0.3,0.1,0.6,0.3,0.8    c0.1,0.1,0.3,0.2,0.5,0.3c0.1,0,0.2,0,0.2,0c0,0,0,0,0,0h0.7l0.1-0.2c5.9-1.4,41.3-11.4,54.1-41.8c7-16.8,9.1-29.6,9.1-43    C1162.9,428.7,1161.7,418.4,1160.5,405.8"></path>
	</g>
</g>
</svg>
